<svg xmlns="http://www.w3.org/2000/svg" viewBox="0 0 200 200" fill="none">
  <!-- Falcon mascot icon -->
  <circle cx="100" cy="100" r="95" fill="#042f2e" stroke="#14b8a6" stroke-width="3"/>
  <!-- Body -->
  <path d="M100 35 C70 35, 45 60, 45 90 C45 110, 55 130, 75 145 L65 170 L80 160 L95 175 L100 165 L105 175 L120 160 L135 170 L125 145 C145 130, 155 110, 155 90 C155 60, 130 35, 100 35Z" fill="#14b8a6"/>
  <!-- Wing left -->
  <path d="M45 90 C30 80, 20 95, 25 110 C28 120, 40 125, 50 120 C55 115, 48 100, 45 90Z" fill="#0d9488"/>
  <!-- Wing right -->
  <path d="M155 90 C170 80, 180 95, 175 110 C172 120, 160 125, 150 120 C145 115, 152 100, 155 90Z" fill="#0d9488"/>
  <!-- Head detail -->
  <ellipse cx="100" cy="70" rx="25" ry="22" fill="#0f766e"/>
  <!-- Eyes -->
  <circle cx="88" cy="66" r="5" fill="white"/>
  <circle cx="112" cy="66" r="5" fill="white"/>
  <circle cx="89" cy="67" r="2.5" fill="#042f2e"/>
  <circle cx="113" cy="67" r="2.5" fill="#042f2e"/>
  <!-- Beak -->
  <path d="M95 75 L100 88 L105 75 Z" fill="#fbbf24"/>
  <path d="M97 75 L100 82 L103 75 Z" fill="#f59e0b"/>
  <!-- Chest detail -->
  <ellipse cx="100" cy="110" rx="18" ry="22" fill="#0d9488" opacity="0.5"/>
  <!-- Text -->
  <text x="100" y="198" text-anchor="middle" font-family="Arial, sans-serif" font-size="11" font-weight="bold" fill="#14b8a6">FALCONS</text>
</svg>
